<mxfile host="app.diagrams.net" modified="2022-04-12T03:18:45.741Z" agent="5.0 (Windows)" etag="7gBNc5ZCf_AE7X72tDwb" version="17.4.0" type="github">
  <diagram id="kIm8Qspef-nH8YUNg8Mn" name="第 1 页">
    <mxGraphModel dx="1422" dy="752" grid="1" gridSize="10" guides="1" tooltips="1" connect="1" arrows="1" fold="1" page="1" pageScale="1" pageWidth="827" pageHeight="1169" math="0" shadow="0">
      <root>
        <mxCell id="0" />
        <mxCell id="1" parent="0" />
        <mxCell id="Da2MV8Sx2bREXACUdLs0-4" value="获取审查项目内容" style="edgeStyle=orthogonalEdgeStyle;rounded=0;orthogonalLoop=1;jettySize=auto;html=1;" parent="1" edge="1">
          <mxGeometry relative="1" as="geometry">
            <mxPoint x="49.5" y="60" as="sourcePoint" />
            <mxPoint x="269.5" y="60" as="targetPoint" />
          </mxGeometry>
        </mxCell>
        <mxCell id="Da2MV8Sx2bREXACUdLs0-1" value="前端" style="shape=umlLifeline;perimeter=lifelinePerimeter;whiteSpace=wrap;html=1;container=1;collapsible=0;recursiveResize=0;outlineConnect=0;" parent="1" vertex="1">
          <mxGeometry width="100" height="300" as="geometry" />
        </mxCell>
        <mxCell id="Da2MV8Sx2bREXACUdLs0-6" value="获取审查项目内容" style="edgeStyle=orthogonalEdgeStyle;rounded=0;orthogonalLoop=1;jettySize=auto;html=1;fontFamily=Helvetica;fontSize=12;" parent="1" edge="1">
          <mxGeometry relative="1" as="geometry">
            <mxPoint x="269.5" y="78" as="sourcePoint" />
            <mxPoint x="529.5" y="78" as="targetPoint" />
          </mxGeometry>
        </mxCell>
        <mxCell id="Da2MV8Sx2bREXACUdLs0-3" value="&lt;pre style=&quot;background-color: rgb(255 , 255 , 255) ; color: rgb(8 , 8 , 8)&quot;&gt;&lt;font style=&quot;font-size: 12px&quot; face=&quot;Helvetica&quot;&gt;&lt;span style=&quot;color: #000000&quot;&gt;TestifyOrderCaseVarController&lt;/span&gt;&lt;/font&gt;&lt;/pre&gt;" style="shape=umlLifeline;perimeter=lifelinePerimeter;whiteSpace=wrap;html=1;container=1;collapsible=0;recursiveResize=0;outlineConnect=0;" parent="1" vertex="1">
          <mxGeometry x="180" width="180" height="390" as="geometry" />
        </mxCell>
        <mxCell id="Da2MV8Sx2bREXACUdLs0-8" value="根据caseId获取特殊审查项目" style="rounded=0;orthogonalLoop=1;jettySize=auto;html=1;fontFamily=Helvetica;fontSize=12;" parent="1" edge="1">
          <mxGeometry relative="1" as="geometry">
            <mxPoint x="529.5" y="100" as="sourcePoint" />
            <mxPoint x="789.5" y="100" as="targetPoint" />
          </mxGeometry>
        </mxCell>
        <mxCell id="Da2MV8Sx2bREXACUdLs0-5" value="CaseProviderClient" style="shape=umlLifeline;perimeter=lifelinePerimeter;whiteSpace=wrap;html=1;container=1;collapsible=0;recursiveResize=0;outlineConnect=0;" parent="1" vertex="1">
          <mxGeometry x="440" width="180" height="1770" as="geometry" />
        </mxCell>
        <mxCell id="Da2MV8Sx2bREXACUdLs0-12" value="根据caseId查找案件审查内容" style="edgeStyle=none;rounded=0;orthogonalLoop=1;jettySize=auto;html=1;fontFamily=Helvetica;fontSize=12;" parent="1" source="Da2MV8Sx2bREXACUdLs0-7" edge="1">
          <mxGeometry relative="1" as="geometry">
            <mxPoint x="810" y="120" as="sourcePoint" />
            <mxPoint x="1049.5" y="121" as="targetPoint" />
          </mxGeometry>
        </mxCell>
        <mxCell id="Da2MV8Sx2bREXACUdLs0-7" value="ICaseService" style="shape=umlLifeline;perimeter=lifelinePerimeter;whiteSpace=wrap;html=1;container=1;collapsible=0;recursiveResize=0;outlineConnect=0;" parent="1" vertex="1">
          <mxGeometry x="678" width="220" height="1760" as="geometry" />
        </mxCell>
        <mxCell id="nsuiQlE-P8FL2XDOxjX3-40" value="特殊审查项目列表" style="rounded=0;orthogonalLoop=1;jettySize=auto;html=1;fontFamily=Helvetica;fontSize=12;endArrow=none;endFill=0;startArrow=block;startFill=1;dashed=1;" edge="1" parent="Da2MV8Sx2bREXACUdLs0-7" target="Da2MV8Sx2bREXACUdLs0-7">
          <mxGeometry relative="1" as="geometry">
            <mxPoint x="-148" y="1320" as="sourcePoint" />
            <mxPoint x="102" y="1320" as="targetPoint" />
          </mxGeometry>
        </mxCell>
        <mxCell id="nsuiQlE-P8FL2XDOxjX3-41" value="根据caseId获取个性化审查项目" style="rounded=0;orthogonalLoop=1;jettySize=auto;html=1;fontFamily=Helvetica;fontSize=12;" edge="1" parent="Da2MV8Sx2bREXACUdLs0-7">
          <mxGeometry relative="1" as="geometry">
            <mxPoint x="-148" y="1360" as="sourcePoint" />
            <mxPoint x="112" y="1360" as="targetPoint" />
          </mxGeometry>
        </mxCell>
        <mxCell id="Da2MV8Sx2bREXACUdLs0-10" value="ICaseCheckItemService" style="shape=umlLifeline;perimeter=lifelinePerimeter;whiteSpace=wrap;html=1;container=1;collapsible=0;recursiveResize=0;outlineConnect=0;" parent="1" vertex="1">
          <mxGeometry x="960" width="180" height="180" as="geometry" />
        </mxCell>
        <mxCell id="Da2MV8Sx2bREXACUdLs0-13" value="案件审查内容列表（内容列表）" style="rounded=0;orthogonalLoop=1;jettySize=auto;html=1;fontFamily=Helvetica;fontSize=12;endArrow=none;endFill=0;startArrow=block;startFill=1;dashed=1;" parent="Da2MV8Sx2bREXACUdLs0-10" source="Da2MV8Sx2bREXACUdLs0-7" edge="1">
          <mxGeometry relative="1" as="geometry">
            <mxPoint x="-150" y="170" as="sourcePoint" />
            <mxPoint x="90" y="164" as="targetPoint" />
          </mxGeometry>
        </mxCell>
        <mxCell id="Da2MV8Sx2bREXACUdLs0-14" value="DB" style="shape=umlLifeline;perimeter=lifelinePerimeter;whiteSpace=wrap;html=1;container=1;collapsible=0;recursiveResize=0;outlineConnect=0;" parent="1" vertex="1">
          <mxGeometry x="1220" width="180" height="1500" as="geometry" />
        </mxCell>
        <mxCell id="Da2MV8Sx2bREXACUdLs0-17" value="根据caseId查找案件审查内容" style="edgeStyle=none;rounded=0;orthogonalLoop=1;jettySize=auto;html=1;fontFamily=Helvetica;fontSize=12;" parent="Da2MV8Sx2bREXACUdLs0-14" source="Da2MV8Sx2bREXACUdLs0-10" edge="1">
          <mxGeometry relative="1" as="geometry">
            <mxPoint x="-160" y="131" as="sourcePoint" />
            <mxPoint x="90" y="131" as="targetPoint" />
          </mxGeometry>
        </mxCell>
        <mxCell id="Da2MV8Sx2bREXACUdLs0-18" value="案件审查内容列表" style="edgeStyle=none;rounded=0;orthogonalLoop=1;jettySize=auto;html=1;fontFamily=Helvetica;fontSize=12;endArrow=none;endFill=0;startArrow=block;startFill=1;dashed=1;" parent="Da2MV8Sx2bREXACUdLs0-14" source="Da2MV8Sx2bREXACUdLs0-10" edge="1">
          <mxGeometry relative="1" as="geometry">
            <mxPoint x="-150" y="150" as="sourcePoint" />
            <mxPoint x="90.5" y="149.5" as="targetPoint" />
            <Array as="points">
              <mxPoint x="-29.5" y="149.5" />
            </Array>
          </mxGeometry>
        </mxCell>
        <mxCell id="Da2MV8Sx2bREXACUdLs0-20" value="案件审查内容变量列表（变量列表）" style="edgeStyle=none;rounded=0;orthogonalLoop=1;jettySize=auto;html=1;fontFamily=Helvetica;fontSize=12;endArrow=none;endFill=0;startArrow=block;startFill=1;dashed=1;" parent="Da2MV8Sx2bREXACUdLs0-14" source="Da2MV8Sx2bREXACUdLs0-7" edge="1">
          <mxGeometry relative="1" as="geometry">
            <mxPoint x="-170" y="230" as="sourcePoint" />
            <mxPoint x="91" y="230" as="targetPoint" />
            <Array as="points">
              <mxPoint x="-29" y="230" />
            </Array>
          </mxGeometry>
        </mxCell>
        <mxCell id="nsuiQlE-P8FL2XDOxjX3-42" value="案件变量列表（变量列表）" style="edgeStyle=none;rounded=0;orthogonalLoop=1;jettySize=auto;html=1;fontFamily=Helvetica;fontSize=12;endArrow=none;endFill=0;startArrow=block;startFill=1;dashed=1;" edge="1" parent="Da2MV8Sx2bREXACUdLs0-14">
          <mxGeometry relative="1" as="geometry">
            <mxPoint x="-430" y="1419" as="sourcePoint" />
            <mxPoint x="93.5" y="1419" as="targetPoint" />
            <Array as="points">
              <mxPoint x="-26.5" y="1419" />
            </Array>
          </mxGeometry>
        </mxCell>
        <mxCell id="nsuiQlE-P8FL2XDOxjX3-43" value="根据案件id查找案件变量列表" style="edgeStyle=none;rounded=0;orthogonalLoop=1;jettySize=auto;html=1;fontFamily=Helvetica;fontSize=12;" edge="1" parent="Da2MV8Sx2bREXACUdLs0-14">
          <mxGeometry relative="1" as="geometry">
            <mxPoint x="-428" y="1390" as="sourcePoint" />
            <mxPoint x="92" y="1390" as="targetPoint" />
          </mxGeometry>
        </mxCell>
        <mxCell id="Da2MV8Sx2bREXACUdLs0-19" value="根据案件id查找案件审查内容变量" style="edgeStyle=none;rounded=0;orthogonalLoop=1;jettySize=auto;html=1;fontFamily=Helvetica;fontSize=12;" parent="1" edge="1">
          <mxGeometry relative="1" as="geometry">
            <mxPoint x="789.5" y="201" as="sourcePoint" />
            <mxPoint x="1309.5" y="201" as="targetPoint" />
          </mxGeometry>
        </mxCell>
        <mxCell id="Da2MV8Sx2bREXACUdLs0-22" value="遍历内容列表，根据”审查项类型“进行对应处理" style="html=1;align=center;verticalAlign=middle;rounded=1;absoluteArcSize=1;arcSize=10;dashed=0;fontFamily=Helvetica;fontSize=12;" parent="1" vertex="1">
          <mxGeometry x="643" y="293" width="290" height="20" as="geometry" />
        </mxCell>
        <mxCell id="Da2MV8Sx2bREXACUdLs0-24" value="审查项类型" style="shape=umlFrame;tabWidth=110;tabHeight=30;tabPosition=left;html=1;boundedLbl=1;labelInHeader=1;width=140;height=30;fontFamily=Helvetica;fontSize=12;" parent="1" vertex="1">
          <mxGeometry x="610" y="329" width="550" height="961" as="geometry" />
        </mxCell>
        <mxCell id="Da2MV8Sx2bREXACUdLs0-25" value="物流信息" style="text;fontFamily=Helvetica;fontSize=12;" parent="Da2MV8Sx2bREXACUdLs0-24" vertex="1">
          <mxGeometry width="100" height="20" relative="1" as="geometry">
            <mxPoint x="20" y="40" as="offset" />
          </mxGeometry>
        </mxCell>
        <mxCell id="Da2MV8Sx2bREXACUdLs0-26" value="变量核验" style="line;strokeWidth=1;dashed=1;labelPosition=center;verticalLabelPosition=bottom;align=left;verticalAlign=top;spacingLeft=20;spacingTop=15;fontFamily=Helvetica;fontSize=12;" parent="Da2MV8Sx2bREXACUdLs0-24" vertex="1">
          <mxGeometry y="180.9991591395192" width="550" height="38.440000000000005" as="geometry" />
        </mxCell>
        <mxCell id="Da2MV8Sx2bREXACUdLs0-31" value="定位信息对比" style="line;strokeWidth=1;dashed=1;labelPosition=center;verticalLabelPosition=bottom;align=left;verticalAlign=top;spacingLeft=20;spacingTop=15;fontFamily=Helvetica;fontSize=12;" parent="Da2MV8Sx2bREXACUdLs0-24" vertex="1">
          <mxGeometry y="370.99741845181387" width="550" height="38.440000000000005" as="geometry" />
        </mxCell>
        <mxCell id="Da2MV8Sx2bREXACUdLs0-32" value="取证时间分析" style="line;strokeWidth=1;dashed=1;labelPosition=center;verticalLabelPosition=bottom;align=left;verticalAlign=top;spacingLeft=20;spacingTop=15;fontFamily=Helvetica;fontSize=12;" parent="Da2MV8Sx2bREXACUdLs0-24" vertex="1">
          <mxGeometry y="571.0003981743885" width="550" height="38.440000000000005" as="geometry" />
        </mxCell>
        <mxCell id="Da2MV8Sx2bREXACUdLs0-33" value="电子封签使用情况" style="line;strokeWidth=1;dashed=1;labelPosition=center;verticalLabelPosition=bottom;align=left;verticalAlign=top;spacingLeft=20;spacingTop=15;fontFamily=Helvetica;fontSize=12;" parent="Da2MV8Sx2bREXACUdLs0-24" vertex="1">
          <mxGeometry y="770.9997453198916" width="550" height="38.440000000000005" as="geometry" />
        </mxCell>
        <mxCell id="Da2MV8Sx2bREXACUdLs0-34" value="其他" style="line;strokeWidth=1;dashed=1;labelPosition=center;verticalLabelPosition=bottom;align=left;verticalAlign=top;spacingLeft=20;spacingTop=15;fontFamily=Helvetica;fontSize=12;" parent="Da2MV8Sx2bREXACUdLs0-24" vertex="1">
          <mxGeometry y="871.0003144326731" width="550" height="38.440000000000005" as="geometry" />
        </mxCell>
        <mxCell id="nsuiQlE-P8FL2XDOxjX3-19" value="根据caseId查找案件流程列表" style="edgeStyle=none;rounded=0;orthogonalLoop=1;jettySize=auto;html=1;fontFamily=Helvetica;fontSize=12;" edge="1" parent="Da2MV8Sx2bREXACUdLs0-24">
          <mxGeometry relative="1" as="geometry">
            <mxPoint x="380" y="413" as="sourcePoint" />
            <mxPoint x="699.5" y="413" as="targetPoint" />
          </mxGeometry>
        </mxCell>
        <mxCell id="nsuiQlE-P8FL2XDOxjX3-20" value="案件流程列表" style="edgeStyle=none;rounded=0;orthogonalLoop=1;jettySize=auto;html=1;fontFamily=Helvetica;fontSize=12;endArrow=none;endFill=0;startArrow=block;startFill=1;dashed=1;" edge="1" parent="Da2MV8Sx2bREXACUdLs0-24">
          <mxGeometry relative="1" as="geometry">
            <mxPoint x="380" y="431.5" as="sourcePoint" />
            <mxPoint x="699.5" y="431.5" as="targetPoint" />
            <Array as="points">
              <mxPoint x="521" y="431.5" />
            </Array>
          </mxGeometry>
        </mxCell>
        <mxCell id="nsuiQlE-P8FL2XDOxjX3-21" value="根据审查内容id，查找审查内容-流程信息列表" style="edgeStyle=none;rounded=0;orthogonalLoop=1;jettySize=auto;html=1;fontFamily=Helvetica;fontSize=12;" edge="1" parent="Da2MV8Sx2bREXACUdLs0-24">
          <mxGeometry relative="1" as="geometry">
            <mxPoint x="380" y="453" as="sourcePoint" />
            <mxPoint x="699.5" y="453" as="targetPoint" />
          </mxGeometry>
        </mxCell>
        <mxCell id="nsuiQlE-P8FL2XDOxjX3-22" value="审查内容-流程信息列表" style="edgeStyle=none;rounded=0;orthogonalLoop=1;jettySize=auto;html=1;fontFamily=Helvetica;fontSize=12;endArrow=none;endFill=0;startArrow=block;startFill=1;dashed=1;" edge="1" parent="Da2MV8Sx2bREXACUdLs0-24">
          <mxGeometry relative="1" as="geometry">
            <mxPoint x="380" y="471.5" as="sourcePoint" />
            <mxPoint x="699.5" y="471.5" as="targetPoint" />
            <Array as="points">
              <mxPoint x="521" y="471.5" />
            </Array>
          </mxGeometry>
        </mxCell>
        <mxCell id="nsuiQlE-P8FL2XDOxjX3-1" value="遍历变量列表，过滤出类型为”物流信息“的变量" style="html=1;align=center;verticalAlign=middle;rounded=1;absoluteArcSize=1;arcSize=10;dashed=0;fontFamily=Helvetica;fontSize=12;" vertex="1" parent="Da2MV8Sx2bREXACUdLs0-24">
          <mxGeometry x="120.00307692307706" y="34.99718667497257" width="260" height="20" as="geometry" />
        </mxCell>
        <mxCell id="nsuiQlE-P8FL2XDOxjX3-2" value="遍历”物流信息“变量列表，按groupId分组" style="html=1;align=center;verticalAlign=middle;rounded=1;absoluteArcSize=1;arcSize=10;dashed=0;fontFamily=Helvetica;fontSize=12;" vertex="1" parent="Da2MV8Sx2bREXACUdLs0-24">
          <mxGeometry x="120.00307692307706" y="63.99718667497257" width="260" height="20" as="geometry" />
        </mxCell>
        <mxCell id="nsuiQlE-P8FL2XDOxjX3-4" value="&lt;div&gt;遍历分组变量：&lt;/div&gt;&lt;div align=&quot;left&quot;&gt;1. 如果未获取官网信息，需要调用中台接口进行更新&lt;/div&gt;&lt;div align=&quot;left&quot;&gt;2. 遍历该组变量，构造物流信息响应数据&lt;br&gt;&lt;/div&gt;" style="html=1;align=center;verticalAlign=middle;rounded=1;absoluteArcSize=1;arcSize=10;dashed=0;fontFamily=Helvetica;fontSize=12;" vertex="1" parent="Da2MV8Sx2bREXACUdLs0-24">
          <mxGeometry x="120.00307692307706" y="92.99718667497257" width="290" height="50" as="geometry" />
        </mxCell>
        <mxCell id="nsuiQlE-P8FL2XDOxjX3-5" value="将物流信息列表添加到特殊审查项目列表中" style="html=1;align=center;verticalAlign=middle;rounded=1;absoluteArcSize=1;arcSize=10;dashed=0;fontFamily=Helvetica;fontSize=12;" vertex="1" parent="Da2MV8Sx2bREXACUdLs0-24">
          <mxGeometry x="120.00307692307706" y="153.99718667497257" width="260" height="20" as="geometry" />
        </mxCell>
        <mxCell id="nsuiQlE-P8FL2XDOxjX3-7" value="遍历”物流信息“变量列表，按groupId分组" style="html=1;align=center;verticalAlign=middle;rounded=1;absoluteArcSize=1;arcSize=10;dashed=0;fontFamily=Helvetica;fontSize=12;" vertex="1" parent="Da2MV8Sx2bREXACUdLs0-24">
          <mxGeometry x="120.00307692307706" y="63.99718667497257" width="260" height="20" as="geometry" />
        </mxCell>
        <mxCell id="nsuiQlE-P8FL2XDOxjX3-8" value="&lt;div&gt;遍历分组变量：&lt;/div&gt;&lt;div align=&quot;left&quot;&gt;1.遍历该组变量，构造变量核验响应数据&lt;br&gt;&lt;/div&gt;" style="html=1;align=center;verticalAlign=middle;rounded=1;absoluteArcSize=1;arcSize=10;dashed=0;fontFamily=Helvetica;fontSize=12;" vertex="1" parent="Da2MV8Sx2bREXACUdLs0-24">
          <mxGeometry x="120.00307692307706" y="288.8271866749726" width="230" height="30" as="geometry" />
        </mxCell>
        <mxCell id="nsuiQlE-P8FL2XDOxjX3-9" value="将变量核验信息列表添加到特殊审查项目列表中" style="html=1;align=center;verticalAlign=middle;rounded=1;absoluteArcSize=1;arcSize=10;dashed=0;fontFamily=Helvetica;fontSize=12;" vertex="1" parent="Da2MV8Sx2bREXACUdLs0-24">
          <mxGeometry x="120.00307692307706" y="333.8271866749726" width="260" height="20" as="geometry" />
        </mxCell>
        <mxCell id="nsuiQlE-P8FL2XDOxjX3-10" value="遍历变量列表，过滤出类型为”变量核验“的变量" style="html=1;align=center;verticalAlign=middle;rounded=1;absoluteArcSize=1;arcSize=10;dashed=0;fontFamily=Helvetica;fontSize=12;" vertex="1" parent="Da2MV8Sx2bREXACUdLs0-24">
          <mxGeometry x="120.00307692307706" y="219.8271866749726" width="260" height="20" as="geometry" />
        </mxCell>
        <mxCell id="nsuiQlE-P8FL2XDOxjX3-11" value="遍历”变量核验“变量列表，按groupId分组" style="html=1;align=center;verticalAlign=middle;rounded=1;absoluteArcSize=1;arcSize=10;dashed=0;fontFamily=Helvetica;fontSize=12;" vertex="1" parent="Da2MV8Sx2bREXACUdLs0-24">
          <mxGeometry x="120.00307692307706" y="255.8271866749726" width="260" height="20" as="geometry" />
        </mxCell>
        <mxCell id="nsuiQlE-P8FL2XDOxjX3-14" value="&lt;div&gt;遍历定位信息列表，从案件流程列表中获取对应流程名称。&lt;/div&gt;&lt;div&gt;构造流程名称-定位信息响应数据&lt;br&gt;&lt;/div&gt;" style="html=1;align=center;verticalAlign=middle;rounded=1;absoluteArcSize=1;arcSize=10;dashed=0;fontFamily=Helvetica;fontSize=12;" vertex="1" parent="Da2MV8Sx2bREXACUdLs0-24">
          <mxGeometry x="120.00307692307706" y="495.99718667497245" width="330" height="30" as="geometry" />
        </mxCell>
        <mxCell id="nsuiQlE-P8FL2XDOxjX3-15" value="将定位信息列表添加到特殊审查项目列表中" style="html=1;align=center;verticalAlign=middle;rounded=1;absoluteArcSize=1;arcSize=10;dashed=0;fontFamily=Helvetica;fontSize=12;" vertex="1" parent="Da2MV8Sx2bREXACUdLs0-24">
          <mxGeometry x="120.00307692307706" y="545.9971866749725" width="260" height="20" as="geometry" />
        </mxCell>
        <mxCell id="nsuiQlE-P8FL2XDOxjX3-16" value="根据caseId，查找案件流程列表" style="html=1;align=center;verticalAlign=middle;rounded=1;absoluteArcSize=1;arcSize=10;dashed=0;fontFamily=Helvetica;fontSize=12;" vertex="1" parent="Da2MV8Sx2bREXACUdLs0-24">
          <mxGeometry x="120.00307692307706" y="412.99718667497257" width="260" height="20" as="geometry" />
        </mxCell>
        <mxCell id="nsuiQlE-P8FL2XDOxjX3-17" value="根据审查内容id，查找定位信息列表" style="html=1;align=center;verticalAlign=middle;rounded=1;absoluteArcSize=1;arcSize=10;dashed=0;fontFamily=Helvetica;fontSize=12;" vertex="1" parent="Da2MV8Sx2bREXACUdLs0-24">
          <mxGeometry x="120.00307692307706" y="452.99718667497257" width="260" height="20" as="geometry" />
        </mxCell>
        <mxCell id="nsuiQlE-P8FL2XDOxjX3-23" value="根据caseId查找案件流程列表" style="edgeStyle=none;rounded=0;orthogonalLoop=1;jettySize=auto;html=1;fontFamily=Helvetica;fontSize=12;" edge="1" parent="Da2MV8Sx2bREXACUdLs0-24">
          <mxGeometry relative="1" as="geometry">
            <mxPoint x="380" y="610.78" as="sourcePoint" />
            <mxPoint x="699.5" y="610.78" as="targetPoint" />
          </mxGeometry>
        </mxCell>
        <mxCell id="nsuiQlE-P8FL2XDOxjX3-24" value="案件流程列表" style="edgeStyle=none;rounded=0;orthogonalLoop=1;jettySize=auto;html=1;fontFamily=Helvetica;fontSize=12;endArrow=none;endFill=0;startArrow=block;startFill=1;dashed=1;" edge="1" parent="Da2MV8Sx2bREXACUdLs0-24">
          <mxGeometry relative="1" as="geometry">
            <mxPoint x="380" y="629.28" as="sourcePoint" />
            <mxPoint x="699.5" y="629.28" as="targetPoint" />
            <Array as="points">
              <mxPoint x="521" y="629.28" />
            </Array>
          </mxGeometry>
        </mxCell>
        <mxCell id="nsuiQlE-P8FL2XDOxjX3-25" value="根据审查内容id，查找审查内容-流程信息列表" style="edgeStyle=none;rounded=0;orthogonalLoop=1;jettySize=auto;html=1;fontFamily=Helvetica;fontSize=12;" edge="1" parent="Da2MV8Sx2bREXACUdLs0-24">
          <mxGeometry relative="1" as="geometry">
            <mxPoint x="380" y="650.78" as="sourcePoint" />
            <mxPoint x="699.5" y="650.78" as="targetPoint" />
          </mxGeometry>
        </mxCell>
        <mxCell id="nsuiQlE-P8FL2XDOxjX3-26" value="审查内容-流程信息列表" style="edgeStyle=none;rounded=0;orthogonalLoop=1;jettySize=auto;html=1;fontFamily=Helvetica;fontSize=12;endArrow=none;endFill=0;startArrow=block;startFill=1;dashed=1;" edge="1" parent="Da2MV8Sx2bREXACUdLs0-24">
          <mxGeometry relative="1" as="geometry">
            <mxPoint x="380" y="669.28" as="sourcePoint" />
            <mxPoint x="699.5" y="669.28" as="targetPoint" />
            <Array as="points">
              <mxPoint x="521" y="669.28" />
            </Array>
          </mxGeometry>
        </mxCell>
        <mxCell id="nsuiQlE-P8FL2XDOxjX3-27" value="&lt;div&gt;遍历取证时间信息列表，从案件流程列表中获取对应流程名称。&lt;/div&gt;&lt;div&gt;构造流程名称-取证时间信息响应数据&lt;br&gt;&lt;/div&gt;" style="html=1;align=center;verticalAlign=middle;rounded=1;absoluteArcSize=1;arcSize=10;dashed=0;fontFamily=Helvetica;fontSize=12;" vertex="1" parent="Da2MV8Sx2bREXACUdLs0-24">
          <mxGeometry x="120.00307692307706" y="693.7771866749727" width="350" height="30" as="geometry" />
        </mxCell>
        <mxCell id="nsuiQlE-P8FL2XDOxjX3-28" value="将取证时间信息列表添加到特殊审查项目列表中" style="html=1;align=center;verticalAlign=middle;rounded=1;absoluteArcSize=1;arcSize=10;dashed=0;fontFamily=Helvetica;fontSize=12;" vertex="1" parent="Da2MV8Sx2bREXACUdLs0-24">
          <mxGeometry x="120.00307692307706" y="743.7771866749727" width="260" height="20" as="geometry" />
        </mxCell>
        <mxCell id="nsuiQlE-P8FL2XDOxjX3-29" value="根据caseId，查找案件流程列表" style="html=1;align=center;verticalAlign=middle;rounded=1;absoluteArcSize=1;arcSize=10;dashed=0;fontFamily=Helvetica;fontSize=12;" vertex="1" parent="Da2MV8Sx2bREXACUdLs0-24">
          <mxGeometry x="120.00307692307706" y="610.7771866749727" width="260" height="20" as="geometry" />
        </mxCell>
        <mxCell id="nsuiQlE-P8FL2XDOxjX3-30" value="根据审查内容id，查找取证时间信息列表" style="html=1;align=center;verticalAlign=middle;rounded=1;absoluteArcSize=1;arcSize=10;dashed=0;fontFamily=Helvetica;fontSize=12;" vertex="1" parent="Da2MV8Sx2bREXACUdLs0-24">
          <mxGeometry x="120.00307692307706" y="650.7771866749727" width="260" height="20" as="geometry" />
        </mxCell>
        <mxCell id="nsuiQlE-P8FL2XDOxjX3-31" value="根据caseId查找电子封签列表" style="edgeStyle=none;rounded=0;orthogonalLoop=1;jettySize=auto;html=1;fontFamily=Helvetica;fontSize=12;" edge="1" parent="Da2MV8Sx2bREXACUdLs0-24">
          <mxGeometry relative="1" as="geometry">
            <mxPoint x="380" y="809.7" as="sourcePoint" />
            <mxPoint x="699.5" y="809.7" as="targetPoint" />
          </mxGeometry>
        </mxCell>
        <mxCell id="nsuiQlE-P8FL2XDOxjX3-32" value="电子封签列表" style="edgeStyle=none;rounded=0;orthogonalLoop=1;jettySize=auto;html=1;fontFamily=Helvetica;fontSize=12;endArrow=none;endFill=0;startArrow=block;startFill=1;dashed=1;" edge="1" parent="Da2MV8Sx2bREXACUdLs0-24">
          <mxGeometry relative="1" as="geometry">
            <mxPoint x="380" y="828.2" as="sourcePoint" />
            <mxPoint x="699.5" y="828.2" as="targetPoint" />
            <Array as="points">
              <mxPoint x="521" y="828.2" />
            </Array>
          </mxGeometry>
        </mxCell>
        <mxCell id="nsuiQlE-P8FL2XDOxjX3-36" value="将电子封签信息列表添加到特殊审查项目列表中" style="html=1;align=center;verticalAlign=middle;rounded=1;absoluteArcSize=1;arcSize=10;dashed=0;fontFamily=Helvetica;fontSize=12;" vertex="1" parent="Da2MV8Sx2bREXACUdLs0-24">
          <mxGeometry x="120.00307692307706" y="842.6971866749727" width="260" height="20" as="geometry" />
        </mxCell>
        <mxCell id="nsuiQlE-P8FL2XDOxjX3-37" value="根据caseId，查找电子封签列表" style="html=1;align=center;verticalAlign=middle;rounded=1;absoluteArcSize=1;arcSize=10;dashed=0;fontFamily=Helvetica;fontSize=12;" vertex="1" parent="Da2MV8Sx2bREXACUdLs0-24">
          <mxGeometry x="120.00307692307706" y="809.6971866749727" width="260" height="20" as="geometry" />
        </mxCell>
        <mxCell id="nsuiQlE-P8FL2XDOxjX3-39" value="抛出异常：未知的审查项" style="html=1;align=center;verticalAlign=middle;rounded=1;absoluteArcSize=1;arcSize=10;dashed=0;fontFamily=Helvetica;fontSize=12;" vertex="1" parent="Da2MV8Sx2bREXACUdLs0-24">
          <mxGeometry x="120.00307692307706" y="920.9971866749727" width="260" height="20" as="geometry" />
        </mxCell>
        <mxCell id="Da2MV8Sx2bREXACUdLs0-21" value="遍历变量列表，为”在场人员“变量进行格式化处理&lt;div&gt;（type1:name1、type2:name2……）&lt;br&gt;&lt;/div&gt;" style="html=1;align=center;verticalAlign=middle;rounded=1;absoluteArcSize=1;arcSize=10;dashed=0;fontFamily=Helvetica;fontSize=12;" parent="1" vertex="1">
          <mxGeometry x="647" y="250" width="280" height="30" as="geometry" />
        </mxCell>
        <mxCell id="nsuiQlE-P8FL2XDOxjX3-44" value="&lt;div&gt;通用变量处理：&lt;/div&gt;&lt;div align=&quot;left&quot;&gt;1. 遍历变量列表，过滤出通用变量（流程id为null）&lt;/div&gt;&lt;div align=&quot;left&quot;&gt;2. 通用变量按groupId分组&lt;/div&gt;&lt;div align=&quot;left&quot;&gt;3. 遍历分组通用变量，构造出每组通用变量的审查项&lt;/div&gt;&lt;div align=&quot;left&quot;&gt;4. 将所有通用变量添加到个性化审查项目列表中&lt;br&gt;&lt;/div&gt;" style="html=1;align=center;verticalAlign=middle;rounded=1;absoluteArcSize=1;arcSize=10;dashed=0;fontFamily=Helvetica;fontSize=12;" vertex="1" parent="1">
          <mxGeometry x="725.0030769230771" y="1439.9971866749727" width="290" height="80" as="geometry" />
        </mxCell>
        <mxCell id="nsuiQlE-P8FL2XDOxjX3-45" value="&lt;div&gt;流程变量处理：&lt;/div&gt;&lt;div align=&quot;left&quot;&gt;1. 遍历变量列表，过滤出流程变量，按流程分组（流程id不为null）&lt;/div&gt;&lt;div align=&quot;left&quot;&gt;2. 遍历流程变量，构造出每个流程变量的审查项&lt;/div&gt;&lt;div align=&quot;left&quot;&gt;3. 将所有流程变量添加到个性化审查项目列表中&lt;br&gt;&lt;/div&gt;" style="html=1;align=center;verticalAlign=middle;rounded=1;absoluteArcSize=1;arcSize=10;dashed=0;fontFamily=Helvetica;fontSize=12;" vertex="1" parent="1">
          <mxGeometry x="725.0030769230771" y="1539.9971866749727" width="370" height="60" as="geometry" />
        </mxCell>
        <mxCell id="nsuiQlE-P8FL2XDOxjX3-46" value="个性化审查项目列表" style="rounded=0;orthogonalLoop=1;jettySize=auto;html=1;fontFamily=Helvetica;fontSize=12;endArrow=none;endFill=0;startArrow=block;startFill=1;dashed=1;" edge="1" parent="1">
          <mxGeometry relative="1" as="geometry">
            <mxPoint x="528" y="1620" as="sourcePoint" />
            <mxPoint x="785.5" y="1620" as="targetPoint" />
          </mxGeometry>
        </mxCell>
      </root>
    </mxGraphModel>
  </diagram>
</mxfile>
